<svg width="45" height="45" viewBox="0 0 45 45" fill="none" xmlns="http://www.w3.org/2000/svg">
<path d="M20.625 31.875H24.375V24.375H31.875V20.625H24.375V13.125H20.625V20.625H13.125V24.375H20.625V31.875ZM22.5 41.25C19.9062 41.25 17.4688 40.7656 15.1875 39.7969C12.9063 38.7969 10.9219 37.4531 9.23438 35.7656C7.54688 34.0781 6.20312 32.0938 5.20313 29.8125C4.23438 27.5312 3.75 25.0938 3.75 22.5C3.75 19.9062 4.23438 17.4687 5.20313 15.1875C6.20312 12.9062 7.54688 10.9219 9.23438 9.23437C10.9219 7.54687 12.9063 6.21875 15.1875 5.25C17.4688 4.25 19.9062 3.75 22.5 3.75C25.0938 3.75 27.5313 4.25 29.8125 5.25C32.0938 6.21875 34.0781 7.54687 35.7656 9.23437C37.4531 10.9219 38.7812 12.9062 39.75 15.1875C40.75 17.4687 41.25 19.9062 41.25 22.5C41.25 25.0938 40.75 27.5312 39.75 29.8125C38.7812 32.0938 37.4531 34.0781 35.7656 35.7656C34.0781 37.4531 32.0938 38.7969 29.8125 39.7969C27.5313 40.7656 25.0938 41.25 22.5 41.25ZM22.5 37.5C26.6875 37.5 30.2344 36.0469 33.1406 33.1406C36.0469 30.2344 37.5 26.6875 37.5 22.5C37.5 18.3125 36.0469 14.7656 33.1406 11.8594C30.2344 8.95312 26.6875 7.5 22.5 7.5C18.3125 7.5 14.7656 8.95312 11.8594 11.8594C8.95312 14.7656 7.5 18.3125 7.5 22.5C7.5 26.6875 8.95312 30.2344 11.8594 33.1406C14.7656 36.0469 18.3125 37.5 22.5 37.5Z" fill="#6C8AA8"/>
</svg>
