<svg width="14" height="16" viewBox="0 0 14 16" fill="none" xmlns="http://www.w3.org/2000/svg">
<path d="M10.456 14.752L9 11.952C8.86133 11.6747 8.856 11.456 8.984 11.296C9.12267 11.1253 9.352 11.0827 9.672 11.168L10.632 11.456V1.04C10.632 0.954666 10.664 0.879999 10.728 0.815999C10.8027 0.741333 10.8827 0.704 10.968 0.704C11.064 0.704 11.144 0.741333 11.208 0.815999C11.2827 0.879999 11.32 0.954666 11.32 1.04V11.456L12.264 11.168C12.584 11.0827 12.8133 11.1253 12.952 11.296C13.1013 11.456 13.1013 11.6747 12.952 11.952L11.496 14.752C11.3573 15.0187 11.1813 15.152 10.968 15.152C10.7653 15.152 10.5947 15.0187 10.456 14.752ZM3.032 15.136C2.936 15.136 2.85067 15.0987 2.776 15.024C2.712 14.96 2.68 14.8853 2.68 14.8V4.384L1.736 4.656C1.416 4.752 1.18667 4.71467 1.048 4.544C0.909333 4.37333 0.909333 4.14933 1.048 3.872L2.504 1.088C2.64267 0.821333 2.81333 0.688 3.016 0.688C3.22933 0.688 3.40533 0.821333 3.544 1.088L5 3.872C5.14933 4.14933 5.14933 4.37333 5 4.544C4.86133 4.71467 4.63733 4.752 4.328 4.656L3.368 4.384V14.8C3.368 14.8853 3.33067 14.96 3.256 15.024C3.192 15.0987 3.11733 15.136 3.032 15.136Z" fill="#6C8AA8"/>
</svg>
