<svg width="13" height="14" viewBox="0 0 13 14" fill="none" xmlns="http://www.w3.org/2000/svg">
<path d="M2.688 13.784C2.528 13.752 2.4 13.6667 2.304 13.528C2.21867 13.3893 2.192 13.24 2.224 13.08L2.944 9.528H0.88C0.72 9.528 0.581333 9.47467 0.464 9.368C0.346667 9.25067 0.288 9.10667 0.288 8.936C0.288 8.776 0.346667 8.63733 0.464 8.52C0.581333 8.40267 0.72 8.344 0.88 8.344H3.184L3.872 4.968H1.744C1.584 4.968 1.44533 4.91467 1.328 4.808C1.21067 4.69067 1.152 4.54667 1.152 4.376C1.152 4.216 1.21067 4.08267 1.328 3.976C1.44533 3.85867 1.584 3.8 1.744 3.8H4.112L4.784 0.52C4.816 0.36 4.90133 0.237333 5.04 0.151999C5.17867 0.0559994 5.328 0.0239995 5.488 0.0559998C5.648 0.0879993 5.77067 0.173333 5.856 0.311999C5.952 0.450666 5.984 0.599999 5.952 0.759999L5.328 3.8H7.952L8.608 0.52C8.65067 0.36 8.736 0.237333 8.864 0.151999C9.00267 0.0559994 9.152 0.0239995 9.312 0.0559998C9.472 0.0879993 9.59467 0.173333 9.68 0.311999C9.776 0.450666 9.808 0.599999 9.776 0.759999L9.152 3.8H11.536C11.696 3.8 11.8347 3.85867 11.952 3.976C12.0693 4.08267 12.128 4.216 12.128 4.376C12.128 4.54667 12.0693 4.69067 11.952 4.808C11.8347 4.91467 11.696 4.968 11.536 4.968H8.912L8.224 8.344H10.672C10.832 8.344 10.9707 8.40267 11.088 8.52C11.2053 8.63733 11.264 8.776 11.264 8.936C11.264 9.10667 11.2053 9.25067 11.088 9.368C10.9707 9.47467 10.832 9.528 10.672 9.528H7.984L7.2 13.32C7.168 13.48 7.08267 13.6027 6.944 13.688C6.816 13.784 6.672 13.816 6.512 13.784C6.352 13.752 6.224 13.6667 6.128 13.528C6.04267 13.3893 6.016 13.24 6.048 13.08L6.768 9.528H4.16L3.376 13.32C3.344 13.48 3.25867 13.6027 3.12 13.688C2.992 13.784 2.848 13.816 2.688 13.784ZM4.4 8.344H7.024L7.712 4.968H5.088L4.4 8.344Z" fill="#6C8AA8"/>
</svg>
